<mxfile host="app.diagrams.net" agent="Mozilla/5.0 (Macintosh; Intel Mac OS X 10_15_7) AppleWebKit/537.36 (KHTML, like Gecko) Chrome/134.0.0.0 Safari/537.36" version="26.1.1">
  <diagram name="Page-1" id="1oOGu-gLoE20WJa_DPg3">
    <mxGraphModel dx="763" dy="492" grid="1" gridSize="10" guides="1" tooltips="1" connect="1" arrows="1" fold="1" page="1" pageScale="1" pageWidth="827" pageHeight="1169" math="0" shadow="0">
      <root>
        <mxCell id="0" />
        <mxCell id="1" parent="0" />
        <mxCell id="iOeNDrVxPZo-YexRlW1L-1" value="" style="rounded=0;whiteSpace=wrap;html=1;" parent="1" vertex="1">
          <mxGeometry x="190" y="70" width="540" height="790" as="geometry" />
        </mxCell>
        <mxCell id="iOeNDrVxPZo-YexRlW1L-2" value="User" style="shape=umlActor;verticalLabelPosition=bottom;verticalAlign=top;html=1;outlineConnect=0;" parent="1" vertex="1">
          <mxGeometry x="180" y="160" width="20" height="30" as="geometry" />
        </mxCell>
        <mxCell id="iOeNDrVxPZo-YexRlW1L-6" value="Sign Up" style="ellipse;whiteSpace=wrap;html=1;" parent="1" vertex="1">
          <mxGeometry x="320" y="150" width="110" height="50" as="geometry" />
        </mxCell>
        <mxCell id="iOeNDrVxPZo-YexRlW1L-7" value="Login" style="ellipse;whiteSpace=wrap;html=1;" parent="1" vertex="1">
          <mxGeometry x="330" y="80" width="110" height="50" as="geometry" />
        </mxCell>
        <mxCell id="iOeNDrVxPZo-YexRlW1L-8" value="Browse Oppoortunities" style="ellipse;whiteSpace=wrap;html=1;" parent="1" vertex="1">
          <mxGeometry x="304" y="300" width="110" height="50" as="geometry" />
        </mxCell>
        <mxCell id="iOeNDrVxPZo-YexRlW1L-9" value="Filter Search" style="ellipse;whiteSpace=wrap;html=1;" parent="1" vertex="1">
          <mxGeometry x="560" y="300" width="110" height="50" as="geometry" />
        </mxCell>
        <mxCell id="iOeNDrVxPZo-YexRlW1L-10" value="Manage Profile" style="ellipse;whiteSpace=wrap;html=1;" parent="1" vertex="1">
          <mxGeometry x="304" y="390" width="110" height="50" as="geometry" />
        </mxCell>
        <mxCell id="iOeNDrVxPZo-YexRlW1L-11" value="Bookmark Opportunities" style="ellipse;whiteSpace=wrap;html=1;" parent="1" vertex="1">
          <mxGeometry x="304" y="460" width="110" height="50" as="geometry" />
        </mxCell>
        <mxCell id="iOeNDrVxPZo-YexRlW1L-13" value="Apply For Jobs" style="ellipse;whiteSpace=wrap;html=1;" parent="1" vertex="1">
          <mxGeometry x="304" y="550" width="110" height="50" as="geometry" />
        </mxCell>
        <mxCell id="iOeNDrVxPZo-YexRlW1L-14" value="Post Jobs" style="ellipse;whiteSpace=wrap;html=1;" parent="1" vertex="1">
          <mxGeometry x="300" y="720" width="110" height="50" as="geometry" />
        </mxCell>
        <mxCell id="iOeNDrVxPZo-YexRlW1L-15" value="Manage Applications" style="ellipse;whiteSpace=wrap;html=1;" parent="1" vertex="1">
          <mxGeometry x="300" y="640" width="110" height="50" as="geometry" />
        </mxCell>
        <mxCell id="iOeNDrVxPZo-YexRlW1L-24" value="Log Out" style="ellipse;whiteSpace=wrap;html=1;" parent="1" vertex="1">
          <mxGeometry x="304" y="220" width="110" height="50" as="geometry" />
        </mxCell>
        <mxCell id="iOeNDrVxPZo-YexRlW1L-27" value="" style="endArrow=classic;html=1;rounded=0;exitX=1;exitY=0.3333333333333333;exitDx=0;exitDy=0;exitPerimeter=0;entryX=0;entryY=0.5;entryDx=0;entryDy=0;" parent="1" source="iOeNDrVxPZo-YexRlW1L-2" target="iOeNDrVxPZo-YexRlW1L-6" edge="1">
          <mxGeometry width="50" height="50" relative="1" as="geometry">
            <mxPoint x="390" y="310" as="sourcePoint" />
            <mxPoint x="440" y="260" as="targetPoint" />
          </mxGeometry>
        </mxCell>
        <mxCell id="iOeNDrVxPZo-YexRlW1L-28" value="" style="endArrow=classic;html=1;rounded=0;entryX=0;entryY=0.5;entryDx=0;entryDy=0;" parent="1" target="iOeNDrVxPZo-YexRlW1L-7" edge="1">
          <mxGeometry width="50" height="50" relative="1" as="geometry">
            <mxPoint x="200" y="170" as="sourcePoint" />
            <mxPoint x="390" y="85" as="targetPoint" />
          </mxGeometry>
        </mxCell>
        <mxCell id="d_8ItNVm7IZiqwizIRnk-8" value="View Profile" style="ellipse;whiteSpace=wrap;html=1;" vertex="1" parent="1">
          <mxGeometry x="560" y="370" width="110" height="50" as="geometry" />
        </mxCell>
        <mxCell id="d_8ItNVm7IZiqwizIRnk-9" value="&amp;lt;&amp;lt;include&amp;gt;&amp;gt;" style="endArrow=open;endSize=12;dashed=1;html=1;rounded=0;exitX=0;exitY=0.5;exitDx=0;exitDy=0;entryX=1;entryY=0.5;entryDx=0;entryDy=0;" edge="1" parent="1" source="d_8ItNVm7IZiqwizIRnk-8" target="iOeNDrVxPZo-YexRlW1L-10">
          <mxGeometry width="160" relative="1" as="geometry">
            <mxPoint x="360" y="430" as="sourcePoint" />
            <mxPoint x="520" y="430" as="targetPoint" />
          </mxGeometry>
        </mxCell>
        <mxCell id="d_8ItNVm7IZiqwizIRnk-13" value="&amp;lt;&amp;lt;include&amp;gt;&amp;gt;" style="endArrow=open;endSize=12;dashed=1;html=1;rounded=0;exitX=0;exitY=0.5;exitDx=0;exitDy=0;entryX=1;entryY=0.5;entryDx=0;entryDy=0;" edge="1" parent="1" source="iOeNDrVxPZo-YexRlW1L-9" target="iOeNDrVxPZo-YexRlW1L-8">
          <mxGeometry width="160" relative="1" as="geometry">
            <mxPoint x="424" y="320" as="sourcePoint" />
            <mxPoint x="445" y="290" as="targetPoint" />
          </mxGeometry>
        </mxCell>
        <mxCell id="d_8ItNVm7IZiqwizIRnk-14" value="Select Role" style="ellipse;whiteSpace=wrap;html=1;" vertex="1" parent="1">
          <mxGeometry x="560" y="150" width="110" height="50" as="geometry" />
        </mxCell>
        <mxCell id="d_8ItNVm7IZiqwizIRnk-16" value="&amp;lt;&amp;lt;include&amp;gt;&amp;gt;" style="endArrow=open;endSize=12;dashed=1;html=1;rounded=0;exitX=0;exitY=0.5;exitDx=0;exitDy=0;entryX=1;entryY=0.5;entryDx=0;entryDy=0;" edge="1" parent="1" source="d_8ItNVm7IZiqwizIRnk-14" target="iOeNDrVxPZo-YexRlW1L-6">
          <mxGeometry width="160" relative="1" as="geometry">
            <mxPoint x="415" y="330" as="sourcePoint" />
            <mxPoint x="445" y="310" as="targetPoint" />
          </mxGeometry>
        </mxCell>
        <mxCell id="d_8ItNVm7IZiqwizIRnk-17" value="Job Seeker" style="shape=umlActor;verticalLabelPosition=bottom;verticalAlign=top;html=1;outlineConnect=0;" vertex="1" parent="1">
          <mxGeometry x="180" y="400" width="20" height="30" as="geometry" />
        </mxCell>
        <mxCell id="d_8ItNVm7IZiqwizIRnk-18" value="Employer" style="shape=umlActor;verticalLabelPosition=bottom;verticalAlign=top;html=1;outlineConnect=0;" vertex="1" parent="1">
          <mxGeometry x="180" y="780" width="20" height="30" as="geometry" />
        </mxCell>
        <mxCell id="d_8ItNVm7IZiqwizIRnk-21" value="" style="edgeStyle=elbowEdgeStyle;elbow=horizontal;endArrow=classic;html=1;curved=0;rounded=0;endSize=8;startSize=8;exitX=0;exitY=0.3333333333333333;exitDx=0;exitDy=0;exitPerimeter=0;entryX=0;entryY=0.3333333333333333;entryDx=0;entryDy=0;entryPerimeter=0;" edge="1" parent="1" source="iOeNDrVxPZo-YexRlW1L-2" target="d_8ItNVm7IZiqwizIRnk-17">
          <mxGeometry width="50" height="50" relative="1" as="geometry">
            <mxPoint x="80" y="330" as="sourcePoint" />
            <mxPoint x="130" y="280" as="targetPoint" />
            <Array as="points">
              <mxPoint x="150" y="300" />
            </Array>
          </mxGeometry>
        </mxCell>
        <mxCell id="d_8ItNVm7IZiqwizIRnk-22" value="" style="edgeStyle=elbowEdgeStyle;elbow=horizontal;endArrow=classic;html=1;curved=0;rounded=0;endSize=8;startSize=8;exitX=0;exitY=0.3333333333333333;exitDx=0;exitDy=0;exitPerimeter=0;entryX=0;entryY=0.3333333333333333;entryDx=0;entryDy=0;entryPerimeter=0;" edge="1" parent="1" source="iOeNDrVxPZo-YexRlW1L-2" target="d_8ItNVm7IZiqwizIRnk-18">
          <mxGeometry width="50" height="50" relative="1" as="geometry">
            <mxPoint x="190" y="180" as="sourcePoint" />
            <mxPoint x="190" y="420" as="targetPoint" />
            <Array as="points">
              <mxPoint x="160" y="310" />
            </Array>
          </mxGeometry>
        </mxCell>
        <mxCell id="d_8ItNVm7IZiqwizIRnk-23" value="" style="endArrow=classic;html=1;rounded=0;exitX=1;exitY=0.3333333333333333;exitDx=0;exitDy=0;exitPerimeter=0;entryX=0;entryY=0.5;entryDx=0;entryDy=0;" edge="1" parent="1" source="iOeNDrVxPZo-YexRlW1L-2" target="iOeNDrVxPZo-YexRlW1L-24">
          <mxGeometry width="50" height="50" relative="1" as="geometry">
            <mxPoint x="210" y="180" as="sourcePoint" />
            <mxPoint x="340" y="145" as="targetPoint" />
          </mxGeometry>
        </mxCell>
        <mxCell id="d_8ItNVm7IZiqwizIRnk-25" value="Update Status" style="ellipse;whiteSpace=wrap;html=1;" vertex="1" parent="1">
          <mxGeometry x="550" y="640" width="110" height="50" as="geometry" />
        </mxCell>
        <mxCell id="d_8ItNVm7IZiqwizIRnk-26" value="&amp;lt;&amp;lt;include&amp;gt;&amp;gt;" style="endArrow=open;endSize=12;dashed=1;html=1;rounded=0;exitX=0;exitY=0.5;exitDx=0;exitDy=0;entryX=1;entryY=0.5;entryDx=0;entryDy=0;" edge="1" parent="1" source="d_8ItNVm7IZiqwizIRnk-25" target="iOeNDrVxPZo-YexRlW1L-15">
          <mxGeometry width="160" relative="1" as="geometry">
            <mxPoint x="570" y="425" as="sourcePoint" />
            <mxPoint x="424" y="425" as="targetPoint" />
          </mxGeometry>
        </mxCell>
        <mxCell id="d_8ItNVm7IZiqwizIRnk-27" value="" style="endArrow=classic;html=1;rounded=0;exitX=1;exitY=0.3333333333333333;exitDx=0;exitDy=0;exitPerimeter=0;entryX=0;entryY=0.5;entryDx=0;entryDy=0;" edge="1" parent="1" source="d_8ItNVm7IZiqwizIRnk-17" target="iOeNDrVxPZo-YexRlW1L-8">
          <mxGeometry width="50" height="50" relative="1" as="geometry">
            <mxPoint x="210" y="180" as="sourcePoint" />
            <mxPoint x="314" y="215" as="targetPoint" />
          </mxGeometry>
        </mxCell>
        <mxCell id="d_8ItNVm7IZiqwizIRnk-28" value="" style="endArrow=classic;html=1;rounded=0;exitX=1;exitY=0.3333333333333333;exitDx=0;exitDy=0;exitPerimeter=0;entryX=0;entryY=0.5;entryDx=0;entryDy=0;" edge="1" parent="1" source="d_8ItNVm7IZiqwizIRnk-17" target="iOeNDrVxPZo-YexRlW1L-10">
          <mxGeometry width="50" height="50" relative="1" as="geometry">
            <mxPoint x="210" y="420" as="sourcePoint" />
            <mxPoint x="314" y="335" as="targetPoint" />
          </mxGeometry>
        </mxCell>
        <mxCell id="d_8ItNVm7IZiqwizIRnk-29" value="" style="endArrow=classic;html=1;rounded=0;exitX=1;exitY=0.3333333333333333;exitDx=0;exitDy=0;exitPerimeter=0;entryX=0;entryY=0.5;entryDx=0;entryDy=0;" edge="1" parent="1" source="d_8ItNVm7IZiqwizIRnk-17" target="iOeNDrVxPZo-YexRlW1L-11">
          <mxGeometry width="50" height="50" relative="1" as="geometry">
            <mxPoint x="210" y="420" as="sourcePoint" />
            <mxPoint x="314" y="425" as="targetPoint" />
          </mxGeometry>
        </mxCell>
        <mxCell id="d_8ItNVm7IZiqwizIRnk-30" value="Upload File" style="ellipse;whiteSpace=wrap;html=1;" vertex="1" parent="1">
          <mxGeometry x="560" y="440" width="110" height="50" as="geometry" />
        </mxCell>
        <mxCell id="d_8ItNVm7IZiqwizIRnk-31" value="&amp;lt;&amp;lt;extend&amp;gt;&amp;gt;" style="endArrow=open;endSize=12;dashed=1;html=1;rounded=0;exitX=0;exitY=0.5;exitDx=0;exitDy=0;entryX=1;entryY=0.5;entryDx=0;entryDy=0;" edge="1" parent="1" source="d_8ItNVm7IZiqwizIRnk-30" target="iOeNDrVxPZo-YexRlW1L-10">
          <mxGeometry width="160" relative="1" as="geometry">
            <mxPoint x="570" y="405" as="sourcePoint" />
            <mxPoint x="424" y="425" as="targetPoint" />
          </mxGeometry>
        </mxCell>
        <mxCell id="d_8ItNVm7IZiqwizIRnk-32" value="" style="endArrow=classic;html=1;rounded=0;exitX=1;exitY=0.3333333333333333;exitDx=0;exitDy=0;exitPerimeter=0;entryX=0;entryY=0.5;entryDx=0;entryDy=0;" edge="1" parent="1" source="d_8ItNVm7IZiqwizIRnk-17" target="iOeNDrVxPZo-YexRlW1L-13">
          <mxGeometry width="50" height="50" relative="1" as="geometry">
            <mxPoint x="210" y="420" as="sourcePoint" />
            <mxPoint x="314" y="505" as="targetPoint" />
          </mxGeometry>
        </mxCell>
        <mxCell id="d_8ItNVm7IZiqwizIRnk-33" value="" style="endArrow=classic;html=1;rounded=0;exitX=1;exitY=0.3333333333333333;exitDx=0;exitDy=0;exitPerimeter=0;entryX=0;entryY=0.5;entryDx=0;entryDy=0;" edge="1" parent="1" source="d_8ItNVm7IZiqwizIRnk-18" target="iOeNDrVxPZo-YexRlW1L-15">
          <mxGeometry width="50" height="50" relative="1" as="geometry">
            <mxPoint x="210" y="420" as="sourcePoint" />
            <mxPoint x="314" y="575" as="targetPoint" />
          </mxGeometry>
        </mxCell>
        <mxCell id="d_8ItNVm7IZiqwizIRnk-34" value="" style="endArrow=classic;html=1;rounded=0;exitX=1;exitY=0.3333333333333333;exitDx=0;exitDy=0;exitPerimeter=0;entryX=0;entryY=0.5;entryDx=0;entryDy=0;" edge="1" parent="1" source="d_8ItNVm7IZiqwizIRnk-18" target="iOeNDrVxPZo-YexRlW1L-14">
          <mxGeometry width="50" height="50" relative="1" as="geometry">
            <mxPoint x="210" y="800" as="sourcePoint" />
            <mxPoint x="310" y="715" as="targetPoint" />
          </mxGeometry>
        </mxCell>
        <mxCell id="d_8ItNVm7IZiqwizIRnk-36" style="edgeStyle=orthogonalEdgeStyle;rounded=0;orthogonalLoop=1;jettySize=auto;html=1;exitX=0.5;exitY=1;exitDx=0;exitDy=0;" edge="1" parent="1" source="iOeNDrVxPZo-YexRlW1L-1" target="iOeNDrVxPZo-YexRlW1L-1">
          <mxGeometry relative="1" as="geometry" />
        </mxCell>
        <mxCell id="d_8ItNVm7IZiqwizIRnk-37" value="Flag Candidates as Potential" style="ellipse;whiteSpace=wrap;html=1;" vertex="1" parent="1">
          <mxGeometry x="300" y="800" width="110" height="50" as="geometry" />
        </mxCell>
        <mxCell id="d_8ItNVm7IZiqwizIRnk-38" value="" style="endArrow=classic;html=1;rounded=0;exitX=1;exitY=0.3333333333333333;exitDx=0;exitDy=0;exitPerimeter=0;entryX=0;entryY=0.5;entryDx=0;entryDy=0;" edge="1" parent="1" source="d_8ItNVm7IZiqwizIRnk-18" target="d_8ItNVm7IZiqwizIRnk-37">
          <mxGeometry width="50" height="50" relative="1" as="geometry">
            <mxPoint x="210" y="800" as="sourcePoint" />
            <mxPoint x="310" y="755" as="targetPoint" />
          </mxGeometry>
        </mxCell>
        <mxCell id="d_8ItNVm7IZiqwizIRnk-39" value="&amp;lt;&amp;lt;include&amp;gt;&amp;gt;" style="endArrow=open;endSize=12;dashed=1;html=1;rounded=0;exitX=0.5;exitY=1;exitDx=0;exitDy=0;entryX=1;entryY=0.5;entryDx=0;entryDy=0;" edge="1" parent="1" source="d_8ItNVm7IZiqwizIRnk-30" target="iOeNDrVxPZo-YexRlW1L-13">
          <mxGeometry width="160" relative="1" as="geometry">
            <mxPoint x="570" y="475" as="sourcePoint" />
            <mxPoint x="424" y="425" as="targetPoint" />
          </mxGeometry>
        </mxCell>
        <mxCell id="d_8ItNVm7IZiqwizIRnk-40" value="&amp;lt;&amp;lt;extend&amp;gt;&amp;gt;" style="endArrow=open;endSize=12;dashed=1;html=1;rounded=0;exitX=0.5;exitY=0;exitDx=0;exitDy=0;entryX=0.5;entryY=1;entryDx=0;entryDy=0;" edge="1" parent="1" source="iOeNDrVxPZo-YexRlW1L-13" target="iOeNDrVxPZo-YexRlW1L-11">
          <mxGeometry width="160" relative="1" as="geometry">
            <mxPoint x="570" y="475" as="sourcePoint" />
            <mxPoint x="424" y="425" as="targetPoint" />
          </mxGeometry>
        </mxCell>
      </root>
    </mxGraphModel>
  </diagram>
</mxfile>
